<svg xmlns="http://www.w3.org/2000/svg" viewBox="0 0 36 36">
	<rect width="36" height="36" rx="7" fill="oklch(0.21 0.034 264.665)" />
	<g transform="translate(2 2)">
		<g fill="oklch(0.7 0.19 275)" opacity="0.28">
			<rect x="24" y="4" width="4" height="4" rx="0.5" />
			<rect x="9" y="9" width="4" height="4" rx="0.5" />
			<rect x="14" y="9" width="4" height="4" rx="0.5" />
			<rect x="19" y="9" width="4" height="4" rx="0.5" />
			<rect x="24" y="14" width="4" height="4" rx="0.5" />
			<rect x="9" y="19" width="4" height="4" rx="0.5" />
			<rect x="14" y="19" width="4" height="4" rx="0.5" />
			<rect x="19" y="19" width="4" height="4" rx="0.5" />
			<rect x="24" y="24" width="4" height="4" rx="0.5" />
		</g>
		<g fill="oklch(0.7 0.19 275)">
			<rect x="4" y="4" width="4" height="4" rx="0.5" />
			<rect x="9" y="4" width="4" height="4" rx="0.5" />
			<rect x="14" y="4" width="4" height="4" rx="0.5" />
			<rect x="19" y="4" width="4" height="4" rx="0.5" />
			<rect x="4" y="9" width="4" height="4" rx="0.5" />
			<rect x="24" y="9" width="4" height="4" rx="0.5" />
			<rect x="4" y="14" width="4" height="4" rx="0.5" />
			<rect x="9" y="14" width="4" height="4" rx="0.5" />
			<rect x="14" y="14" width="4" height="4" rx="0.5" />
			<rect x="19" y="14" width="4" height="4" rx="0.5" />
			<rect x="4" y="19" width="4" height="4" rx="0.5" />
			<rect x="24" y="19" width="4" height="4" rx="0.5" />
			<rect x="4" y="24" width="4" height="4" rx="0.5" />
			<rect x="9" y="24" width="4" height="4" rx="0.5" />
			<rect x="14" y="24" width="4" height="4" rx="0.5" />
			<rect x="19" y="24" width="4" height="4" rx="0.5" />
		</g>
	</g>
</svg>
