<svg width="36" height="36" viewBox="0 0 36 36" fill="none" xmlns="http://www.w3.org/2000/svg">
<rect width="36" height="36" rx="7" fill="#030712"/>
<rect x="16" y="6" width="4" height="4" rx="0.7778" fill="#7F8FFF"/>
<rect x="11" y="6" width="4" height="4" rx="0.7778" fill="#7F8FFF"/>
<rect x="21" y="6" width="4" height="4" rx="0.7778" fill="#7F8FFF"/>
<rect x="6" y="6" width="4" height="4" rx="0.7778" fill="#7F8FFF"/>
<rect x="26" y="6" width="4" height="4" rx="0.7778" fill="#262D54"/>
<rect x="16" y="11" width="4" height="4" rx="0.7778" fill="#262D54"/>
<rect x="11" y="11" width="4" height="4" rx="0.7778" fill="#262D54"/>
<rect x="21" y="11" width="4" height="4" rx="0.7778" fill="#262D54"/>
<rect x="6" y="11" width="4" height="4" rx="0.7778" fill="#7F8FFF"/>
<rect x="26" y="11" width="4" height="4" rx="0.7778" fill="#7F8FFF"/>
<rect x="16" y="16" width="4" height="4" rx="0.7778" fill="#7F8FFF"/>
<rect x="11" y="16" width="4" height="4" rx="0.7778" fill="#7F8FFF"/>
<rect x="21" y="16" width="4" height="4" rx="0.7778" fill="#7F8FFF"/>
<rect x="6" y="16" width="4" height="4" rx="0.7778" fill="#7F8FFF"/>
<rect x="26" y="16" width="4" height="4" rx="0.7778" fill="#262D54"/>
<rect x="16" y="21" width="4" height="4" rx="0.7778" fill="#262D54"/>
<rect x="11" y="21" width="4" height="4" rx="0.7778" fill="#262D54"/>
<rect x="21" y="21" width="4" height="4" rx="0.7778" fill="#262D54"/>
<rect x="6" y="21" width="4" height="4" rx="0.7778" fill="#7F8FFF"/>
<rect x="26" y="21" width="4" height="4" rx="0.7778" fill="#7F8FFF"/>
<rect x="16" y="26" width="4" height="4" rx="0.7778" fill="#7F8FFF"/>
<rect x="11" y="26" width="4" height="4" rx="0.7778" fill="#7F8FFF"/>
<rect x="21" y="26" width="4" height="4" rx="0.7778" fill="#7F8FFF"/>
<rect x="6" y="26" width="4" height="4" rx="0.7778" fill="#7F8FFF"/>
<rect x="26" y="26" width="4" height="4" rx="0.7778" fill="#262D54"/>
</svg>
