<svg width="106" height="24" viewBox="0 0 106 24" fill="none" xmlns="http://www.w3.org/2000/svg">
<path d="M45 20.9517V3.49716H51.9886C53.2727 3.49716 54.3438 3.6875 55.2017 4.06818C56.0597 4.44886 56.7045 4.97727 57.1364 5.65341C57.5682 6.32386 57.7841 7.09659 57.7841 7.97159C57.7841 8.65341 57.6477 9.25284 57.375 9.76989C57.1023 10.2813 56.7273 10.7017 56.25 11.0313C55.7784 11.3551 55.2386 11.5852 54.6307 11.7216V11.892C55.2955 11.9205 55.9176 12.108 56.4972 12.4545C57.0824 12.8011 57.5568 13.2869 57.9205 13.9119C58.2841 14.5312 58.4659 15.2699 58.4659 16.1278C58.4659 17.054 58.2358 17.8807 57.7756 18.608C57.321 19.3295 56.6477 19.9006 55.7557 20.321C54.8636 20.7415 53.7642 20.9517 52.4574 20.9517H45ZM48.6903 17.9347H51.6989C52.7273 17.9347 53.4773 17.7386 53.9489 17.3466C54.4205 16.9489 54.6563 16.4205 54.6563 15.7614C54.6563 15.2784 54.5398 14.8523 54.3068 14.483C54.0739 14.1136 53.7415 13.8239 53.3097 13.6136C52.8835 13.4034 52.375 13.2983 51.7841 13.2983H48.6903V17.9347ZM48.6903 10.8011H51.4261C51.9318 10.8011 52.3807 10.7131 52.7727 10.5369C53.1705 10.3551 53.483 10.0994 53.7102 9.76989C53.9432 9.44034 54.0597 9.04546 54.0597 8.58523C54.0597 7.95455 53.8352 7.44602 53.3864 7.05966C52.9432 6.6733 52.3125 6.48011 51.4943 6.48011H48.6903V10.8011Z" fill="#FAFAFA"/>
<path d="M60.259 20.9517V7.8608H63.8897V20.9517H60.259ZM62.0829 6.1733C61.5431 6.1733 61.08 5.99432 60.6937 5.63636C60.313 5.27273 60.1226 4.83807 60.1226 4.33239C60.1226 3.83239 60.313 3.40341 60.6937 3.04546C61.08 2.68182 61.5431 2.5 62.0829 2.5C62.6226 2.5 63.0829 2.68182 63.4636 3.04546C63.8499 3.40341 64.0431 3.83239 64.0431 4.33239C64.0431 4.83807 63.8499 5.27273 63.4636 5.63636C63.0829 5.99432 62.6226 6.1733 62.0829 6.1733Z" fill="#FAFAFA"/>
<path d="M73.2211 7.8608V10.5881H65.3376V7.8608H73.2211ZM67.1274 4.72443H70.7581V16.929C70.7581 17.2642 70.8092 17.5256 70.9115 17.7131C71.0138 17.8949 71.1558 18.0227 71.3376 18.0966C71.5251 18.1705 71.741 18.2074 71.9853 18.2074C72.1558 18.2074 72.3262 18.1932 72.4967 18.1648C72.6672 18.1307 72.7978 18.1051 72.8888 18.0881L73.4598 20.7898C73.278 20.8466 73.0223 20.9119 72.6927 20.9858C72.3632 21.0653 71.9626 21.1136 71.491 21.1307C70.616 21.1648 69.849 21.0483 69.1899 20.7812C68.5365 20.5142 68.028 20.0994 67.6643 19.5369C67.3007 18.9744 67.1217 18.2642 67.1274 17.4063V4.72443Z" fill="#FAFAFA"/>
<path d="M75.3956 20.9517V3.49716H79.086V11.1932H79.3161L85.5973 3.49716H90.0206L83.5434 11.3125L90.0973 20.9517H85.6826L80.9013 13.7756L79.086 15.9915V20.9517H75.3956Z" fill="#FAFAFA"/>
<path d="M92.1546 20.9517V7.8608H95.7853V20.9517H92.1546ZM93.9785 6.1733C93.4387 6.1733 92.9757 5.99432 92.5893 5.63636C92.2086 5.27273 92.0183 4.83807 92.0183 4.33239C92.0183 3.83239 92.2086 3.40341 92.5893 3.04546C92.9757 2.68182 93.4387 2.5 93.9785 2.5C94.5183 2.5 94.9785 2.68182 95.3592 3.04546C95.7455 3.40341 95.9387 3.83239 95.9387 4.33239C95.9387 4.83807 95.7455 5.27273 95.3592 5.63636C94.9785 5.99432 94.5183 6.1733 93.9785 6.1733Z" fill="#FAFAFA"/>
<path d="M105.117 7.8608V10.5881H97.2332V7.8608H105.117ZM99.023 4.72443H102.654V16.929C102.654 17.2642 102.705 17.5256 102.807 17.7131C102.909 17.8949 103.051 18.0227 103.233 18.0966C103.421 18.1705 103.637 18.2074 103.881 18.2074C104.051 18.2074 104.222 18.1932 104.392 18.1648C104.563 18.1307 104.693 18.1051 104.784 18.0881L105.355 20.7898C105.174 20.8466 104.918 20.9119 104.588 20.9858C104.259 21.0653 103.858 21.1136 103.387 21.1307C102.512 21.1648 101.745 21.0483 101.086 20.7812C100.432 20.5142 99.9236 20.0994 99.5599 19.5369C99.1963 18.9744 99.0173 18.2642 99.023 17.4063V4.72443Z" fill="#FAFAFA"/>
<line x1="34.5" y1="2.18557e-08" x2="34.5" y2="24" stroke="#353942"/>
<rect x="10" width="4" height="4" rx="0.7778" fill="#7F8FFF"/>
<rect x="5" width="4" height="4" rx="0.7778" fill="#7F8FFF"/>
<rect x="15" width="4" height="4" rx="0.7778" fill="#7F8FFF"/>
<rect width="4" height="4" rx="0.7778" fill="#7F8FFF"/>
<rect x="20" width="4" height="4" rx="0.7778" fill="#262D54"/>
<rect x="10" y="5" width="4" height="4" rx="0.7778" fill="#262D54"/>
<rect x="5" y="5" width="4" height="4" rx="0.7778" fill="#262D54"/>
<rect x="15" y="5" width="4" height="4" rx="0.7778" fill="#262D54"/>
<rect y="5" width="4" height="4" rx="0.7778" fill="#7F8FFF"/>
<rect x="20" y="5" width="4" height="4" rx="0.7778" fill="#7F8FFF"/>
<rect x="10" y="10" width="4" height="4" rx="0.7778" fill="#7F8FFF"/>
<rect x="5" y="10" width="4" height="4" rx="0.7778" fill="#7F8FFF"/>
<rect x="15" y="10" width="4" height="4" rx="0.7778" fill="#7F8FFF"/>
<rect y="10" width="4" height="4" rx="0.7778" fill="#7F8FFF"/>
<rect x="20" y="10" width="4" height="4" rx="0.7778" fill="#262D54"/>
<rect x="10" y="15" width="4" height="4" rx="0.7778" fill="#262D54"/>
<rect x="5" y="15" width="4" height="4" rx="0.7778" fill="#262D54"/>
<rect x="15" y="15" width="4" height="4" rx="0.7778" fill="#262D54"/>
<rect y="15" width="4" height="4" rx="0.7778" fill="#7F8FFF"/>
<rect x="20" y="15" width="4" height="4" rx="0.7778" fill="#7F8FFF"/>
<rect x="10" y="20" width="4" height="4" rx="0.7778" fill="#7F8FFF"/>
<rect x="5" y="20" width="4" height="4" rx="0.7778" fill="#7F8FFF"/>
<rect x="15" y="20" width="4" height="4" rx="0.7778" fill="#7F8FFF"/>
<rect y="20" width="4" height="4" rx="0.7778" fill="#7F8FFF"/>
<rect x="20" y="20" width="4" height="4" rx="0.7778" fill="#262D54"/>
</svg>
