<svg width="160" height="26" viewBox="0 0 160 26" fill="none" xmlns="http://www.w3.org/2000/svg">
<g clip-path="url(#clip0_28_212)">
<path d="M45 20.9032V3.44864H51.9886C53.2727 3.44864 54.3438 3.63898 55.2017 4.01966C56.0597 4.40034 56.7045 4.92875 57.1364 5.60489C57.5682 6.27534 57.7841 7.04807 57.7841 7.92307C57.7841 8.60489 57.6477 9.20432 57.375 9.72136C57.1023 10.2327 56.7273 10.6532 56.25 10.9827C55.7784 11.3066 55.2386 11.5367 54.6307 11.6731V11.8435C55.2955 11.8719 55.9176 12.0594 56.4972 12.406C57.0824 12.7526 57.5568 13.2384 57.9205 13.8634C58.2841 14.4827 58.4659 15.2214 58.4659 16.0793C58.4659 17.0055 58.2358 17.8322 57.7756 18.5594C57.321 19.281 56.6477 19.852 55.7557 20.2725C54.8636 20.693 53.7642 20.9032 52.4574 20.9032H45ZM48.6903 17.8861H51.6989C52.7273 17.8861 53.4773 17.6901 53.9489 17.2981C54.4205 16.9003 54.6563 16.3719 54.6563 15.7128C54.6563 15.2299 54.5398 14.8037 54.3068 14.4344C54.0739 14.0651 53.7415 13.7753 53.3097 13.5651C52.8835 13.3549 52.375 13.2498 51.7841 13.2498H48.6903V17.8861ZM48.6903 10.7526H51.4261C51.9318 10.7526 52.3807 10.6645 52.7727 10.4884C53.1705 10.3066 53.483 10.0509 53.7102 9.72136C53.9432 9.39182 54.0597 8.99693 54.0597 8.5367C54.0597 7.90602 53.8352 7.3975 53.3864 7.01114C52.9432 6.62477 52.3125 6.43159 51.4943 6.43159H48.6903V10.7526Z" fill="#FAFAFA"/>
<path d="M62.5005 25.8123C62.0403 25.8123 61.6084 25.7753 61.205 25.7015C60.8073 25.6333 60.4778 25.5452 60.2164 25.4373L61.0346 22.727C61.4607 22.8577 61.8442 22.9287 62.1851 22.9401C62.5317 22.9515 62.83 22.8719 63.08 22.7015C63.3357 22.531 63.5431 22.2412 63.7022 21.8322L63.9153 21.2782L59.2192 7.81227H63.0374L65.7476 17.4259H65.884L68.6198 7.81227H72.4636L67.3755 22.318C67.1312 23.0225 66.7988 23.6361 66.3783 24.1589C65.9636 24.6873 65.438 25.0935 64.8016 25.3776C64.1653 25.6674 63.3982 25.8123 62.5005 25.8123Z" fill="#FAFAFA"/>
<path d="M80.7446 7.81227V10.5395H72.8611V7.81227H80.7446ZM74.6508 4.67591H78.2815V16.8805C78.2815 17.2157 78.3326 17.477 78.4349 17.6645C78.5372 17.8464 78.6792 17.9742 78.8611 18.0481C79.0486 18.1219 79.2645 18.1589 79.5088 18.1589C79.6792 18.1589 79.8497 18.1447 80.0201 18.1163C80.1906 18.0822 80.3213 18.0566 80.4122 18.0395L80.9832 20.7412C80.8014 20.7981 80.5457 20.8634 80.2162 20.9373C79.8866 21.0168 79.4861 21.0651 79.0145 21.0822C78.1395 21.1162 77.3724 20.9998 76.7133 20.7327C76.0599 20.4657 75.5514 20.0509 75.1878 19.4884C74.8241 18.9259 74.6451 18.2157 74.6508 17.3577V4.67591Z" fill="#FAFAFA"/>
<path d="M88.3949 21.1589C87.0483 21.1589 85.8892 20.8861 84.9176 20.3407C83.9517 19.7895 83.2074 19.0111 82.6847 18.0055C82.162 16.9941 81.9006 15.7981 81.9006 14.4174C81.9006 13.0708 82.162 11.889 82.6847 10.8719C83.2074 9.85489 83.9432 9.06227 84.8921 8.49409C85.8466 7.92591 86.9659 7.64182 88.25 7.64182C89.1137 7.64182 89.9176 7.78102 90.662 8.05943C91.412 8.33216 92.0654 8.74409 92.6222 9.29523C93.1847 9.84636 93.6222 10.5395 93.9347 11.3748C94.2472 12.2043 94.4034 13.1759 94.4034 14.2895V15.2867H83.3495V13.0367H90.9858C90.9858 12.514 90.8722 12.0509 90.6449 11.6475C90.4176 11.2441 90.1023 10.9287 89.6989 10.7015C89.3012 10.4685 88.8381 10.352 88.3097 10.352C87.7586 10.352 87.2699 10.4799 86.8438 10.7356C86.4233 10.9856 86.0938 11.3236 85.8551 11.7498C85.6165 12.1702 85.4943 12.639 85.4887 13.156V15.2952C85.4887 15.943 85.608 16.5026 85.8466 16.9742C86.0909 17.4458 86.4347 17.8094 86.8779 18.0651C87.3211 18.3208 87.8466 18.4486 88.4546 18.4486C88.858 18.4486 89.2273 18.3918 89.5625 18.2782C89.8978 18.1645 90.1847 17.9941 90.4233 17.7668C90.662 17.5395 90.8438 17.2611 90.9688 16.9316L94.3267 17.1532C94.1563 17.96 93.8068 18.6645 93.2784 19.2668C92.7557 19.8634 92.0796 20.3293 91.25 20.6645C90.4262 20.9941 89.4745 21.1589 88.3949 21.1589Z" fill="#FAFAFA"/>
<path d="M105.77 8.46852C105.702 7.78102 105.409 7.24693 104.892 6.86625C104.375 6.48557 103.673 6.29523 102.787 6.29523C102.184 6.29523 101.676 6.38045 101.261 6.55091C100.846 6.71568 100.528 6.9458 100.307 7.24125C100.091 7.5367 99.9828 7.87193 99.9828 8.24693C99.9714 8.55943 100.037 8.83216 100.179 9.06511C100.327 9.29807 100.528 9.49977 100.784 9.67023C101.04 9.835 101.335 9.97989 101.67 10.1049C102.005 10.2242 102.363 10.3265 102.744 10.4117L104.312 10.7867C105.074 10.9572 105.773 11.1844 106.409 11.4685C107.045 11.7526 107.596 12.102 108.062 12.5168C108.528 12.9316 108.889 13.4202 109.145 13.9827C109.406 14.5452 109.54 15.1901 109.545 15.9174C109.54 16.9856 109.267 17.9117 108.727 18.6958C108.193 19.4742 107.42 20.0793 106.409 20.5111C105.403 20.9373 104.19 21.1503 102.77 21.1503C101.361 21.1503 100.133 20.9344 99.0879 20.5026C98.0481 20.0708 97.2356 19.4316 96.6504 18.585C96.0708 17.7327 95.7668 16.6788 95.7384 15.4231H99.3095C99.3492 16.0083 99.5168 16.4969 99.8123 16.889C100.113 17.2753 100.514 17.568 101.014 17.7668C101.52 17.96 102.091 18.0566 102.727 18.0566C103.352 18.0566 103.895 17.9657 104.355 17.7839C104.821 17.602 105.182 17.3492 105.437 17.0253C105.693 16.7015 105.821 16.3293 105.821 15.9089C105.821 15.5168 105.704 15.1873 105.471 14.9202C105.244 14.6532 104.909 14.4259 104.466 14.2384C104.028 14.0509 103.491 13.8805 102.855 13.727L100.954 13.2498C99.4828 12.8918 98.3208 12.3322 97.4686 11.5708C96.6163 10.8094 96.193 9.78386 96.1987 8.49409C96.193 7.43727 96.4742 6.51398 97.0424 5.7242C97.6163 4.93443 98.4032 4.31795 99.4032 3.87477C100.403 3.43159 101.54 3.21 102.812 3.21C104.108 3.21 105.238 3.43159 106.204 3.87477C107.176 4.31795 107.932 4.93443 108.471 5.7242C109.011 6.51398 109.29 7.42875 109.307 8.46852H105.77Z" fill="#FAFAFA"/>
<path d="M118.382 7.81227V10.5395H110.499V7.81227H118.382ZM112.289 4.67591H115.919V16.8805C115.919 17.2157 115.97 17.477 116.073 17.6645C116.175 17.8464 116.317 17.9742 116.499 18.0481C116.686 18.1219 116.902 18.1589 117.147 18.1589C117.317 18.1589 117.488 18.1447 117.658 18.1163C117.828 18.0822 117.959 18.0566 118.05 18.0395L118.621 20.7412C118.439 20.7981 118.184 20.8634 117.854 20.9373C117.524 21.0168 117.124 21.0651 116.652 21.0822C115.777 21.1162 115.01 20.9998 114.351 20.7327C113.698 20.4657 113.189 20.0509 112.826 19.4884C112.462 18.9259 112.283 18.2157 112.289 17.3577V4.67591Z" fill="#FAFAFA"/>
<path d="M123.94 21.1503C123.105 21.1503 122.361 21.0055 121.707 20.7157C121.054 20.4202 120.537 19.9856 120.156 19.4117C119.781 18.8322 119.594 18.1106 119.594 17.2469C119.594 16.5197 119.727 15.9089 119.994 15.4145C120.261 14.9202 120.625 14.5225 121.085 14.2214C121.546 13.9202 122.068 13.693 122.653 13.5395C123.244 13.3861 123.864 13.2782 124.511 13.2157C125.273 13.1361 125.886 13.0623 126.352 12.9941C126.818 12.9202 127.156 12.8123 127.367 12.6702C127.577 12.5282 127.682 12.318 127.682 12.0395V11.9884C127.682 11.4486 127.511 11.031 127.171 10.7356C126.835 10.4401 126.358 10.2924 125.739 10.2924C125.085 10.2924 124.565 10.4373 124.179 10.727C123.793 11.0111 123.537 11.3691 123.412 11.8009L120.054 11.5282C120.224 10.7327 120.56 10.0452 121.06 9.46568C121.56 8.88045 122.205 8.43159 122.994 8.11909C123.79 7.80091 124.71 7.64182 125.756 7.64182C126.483 7.64182 127.179 7.72705 127.844 7.8975C128.514 8.06795 129.108 8.33216 129.625 8.69011C130.148 9.04807 130.56 9.5083 130.861 10.0708C131.162 10.6276 131.313 11.2952 131.313 12.0736V20.9032H127.869V19.0878H127.767C127.557 19.4969 127.276 19.8577 126.923 20.1702C126.571 20.477 126.148 20.7185 125.653 20.8947C125.159 21.0651 124.588 21.1503 123.94 21.1503ZM124.98 18.6447C125.514 18.6447 125.986 18.5395 126.395 18.3293C126.804 18.1134 127.125 17.8236 127.358 17.46C127.591 17.0964 127.707 16.6844 127.707 16.2242V14.835C127.594 14.9089 127.438 14.977 127.239 15.0395C127.046 15.0964 126.827 15.1503 126.582 15.2015C126.338 15.2469 126.094 15.2895 125.849 15.3293C125.605 15.3634 125.384 15.3947 125.185 15.4231C124.759 15.4856 124.386 15.585 124.068 15.7214C123.75 15.8577 123.503 16.0424 123.327 16.2753C123.151 16.5026 123.063 16.7867 123.063 17.1276C123.063 17.6219 123.242 17.9998 123.599 18.2611C123.963 18.5168 124.423 18.6447 124.98 18.6447Z" fill="#FAFAFA"/>
<path d="M139.504 21.1589C138.163 21.1589 137.01 20.8748 136.044 20.3066C135.084 19.7327 134.345 18.9373 133.828 17.9202C133.317 16.9032 133.061 15.7327 133.061 14.4089C133.061 13.068 133.319 11.8918 133.836 10.8805C134.359 9.86341 135.101 9.07079 136.061 8.50261C137.021 7.92875 138.163 7.64182 139.487 7.64182C140.629 7.64182 141.629 7.8492 142.487 8.26398C143.345 8.67875 144.024 9.26114 144.524 10.0111C145.024 10.7611 145.3 11.6418 145.351 12.6532H141.925C141.828 11.9998 141.572 11.4742 141.158 11.0765C140.748 10.6731 140.211 10.4714 139.547 10.4714C138.984 10.4714 138.493 10.6248 138.072 10.9316C137.658 11.2327 137.334 11.6731 137.101 12.2526C136.868 12.8322 136.751 13.5339 136.751 14.3577C136.751 15.193 136.865 15.9032 137.092 16.4884C137.325 17.0736 137.652 17.5197 138.072 17.8265C138.493 18.1333 138.984 18.2867 139.547 18.2867C139.961 18.2867 140.334 18.2015 140.663 18.031C140.998 17.8606 141.274 17.6134 141.49 17.2895C141.711 16.96 141.856 16.5651 141.925 16.1049H145.351C145.294 17.1049 145.021 17.9856 144.533 18.7469C144.05 19.5026 143.382 20.0935 142.53 20.5197C141.677 20.9458 140.669 21.1589 139.504 21.1589Z" fill="#FAFAFA"/>
<path d="M150.425 17.1361L150.434 12.781H150.962L155.155 7.81227H159.323L153.689 14.3918H152.828L150.425 17.1361ZM147.135 20.9032V3.44864H150.766V20.9032H147.135ZM155.317 20.9032L151.465 15.2015L153.885 12.6361L159.57 20.9032H155.317Z" fill="#FAFAFA"/>
<line x1="34.5" y1="2.18557e-08" x2="34.5" y2="24" stroke="#353942"/>
<rect x="10" width="4" height="4" rx="0.7778" fill="#7F8FFF"/>
<rect x="5" width="4" height="4" rx="0.7778" fill="#7F8FFF"/>
<rect x="15" width="4" height="4" rx="0.7778" fill="#7F8FFF"/>
<rect width="4" height="4" rx="0.7778" fill="#7F8FFF"/>
<rect x="20" width="4" height="4" rx="0.7778" fill="#262D54"/>
<rect x="10" y="5" width="4" height="4" rx="0.7778" fill="#262D54"/>
<rect x="5" y="5" width="4" height="4" rx="0.7778" fill="#262D54"/>
<rect x="15" y="5" width="4" height="4" rx="0.7778" fill="#262D54"/>
<rect y="5" width="4" height="4" rx="0.7778" fill="#7F8FFF"/>
<rect x="20" y="5" width="4" height="4" rx="0.7778" fill="#7F8FFF"/>
<rect x="10" y="10" width="4" height="4" rx="0.7778" fill="#7F8FFF"/>
<rect x="5" y="10" width="4" height="4" rx="0.7778" fill="#7F8FFF"/>
<rect x="15" y="10" width="4" height="4" rx="0.7778" fill="#7F8FFF"/>
<rect y="10" width="4" height="4" rx="0.7778" fill="#7F8FFF"/>
<rect x="20" y="10" width="4" height="4" rx="0.7778" fill="#262D54"/>
<rect x="10" y="15" width="4" height="4" rx="0.7778" fill="#262D54"/>
<rect x="5" y="15" width="4" height="4" rx="0.7778" fill="#262D54"/>
<rect x="15" y="15" width="4" height="4" rx="0.7778" fill="#262D54"/>
<rect y="15" width="4" height="4" rx="0.7778" fill="#7F8FFF"/>
<rect x="20" y="15" width="4" height="4" rx="0.7778" fill="#7F8FFF"/>
<rect x="10" y="20" width="4" height="4" rx="0.7778" fill="#7F8FFF"/>
<rect x="5" y="20" width="4" height="4" rx="0.7778" fill="#7F8FFF"/>
<rect x="15" y="20" width="4" height="4" rx="0.7778" fill="#7F8FFF"/>
<rect y="20" width="4" height="4" rx="0.7778" fill="#7F8FFF"/>
<rect x="20" y="20" width="4" height="4" rx="0.7778" fill="#262D54"/>
</g>
<defs>
<clipPath id="clip0_28_212">
<rect width="159.57" height="25.81" fill="white"/>
</clipPath>
</defs>
</svg>
